<svg id="Component" xmlns="http://www.w3.org/2000/svg" width="29.982" height="29.982" viewBox="0 0 29.982 29.982">
  <path id="Path_3" data-name="Path 3" d="M14.991,2.665a45.965,45.965,0,0,1,6,.167,7.726,7.726,0,0,1,2.832.5A5.85,5.85,0,0,1,26.65,6.163a7.726,7.726,0,0,1,.5,2.832c0,1.5.167,2,.167,6a45.966,45.966,0,0,1-.167,6,7.726,7.726,0,0,1-.5,2.832,5.85,5.85,0,0,1-2.832,2.832,7.726,7.726,0,0,1-2.832.5c-1.5,0-2,.167-6,.167a45.966,45.966,0,0,1-6-.167,7.726,7.726,0,0,1-2.832-.5,5.85,5.85,0,0,1-2.832-2.832,7.726,7.726,0,0,1-.5-2.832c0-1.5-.167-2-.167-6a45.965,45.965,0,0,1,.167-6,7.726,7.726,0,0,1,.5-2.832A5.982,5.982,0,0,1,4.5,4.5,2.816,2.816,0,0,1,6.163,3.331a7.726,7.726,0,0,1,2.832-.5,45.965,45.965,0,0,1,6-.167m0-2.665A49.215,49.215,0,0,0,8.828.167,10.283,10.283,0,0,0,5.164.833,6.521,6.521,0,0,0,2.5,2.5,6.521,6.521,0,0,0,.833,5.164,7.589,7.589,0,0,0,.167,8.828,49.215,49.215,0,0,0,0,14.991a49.215,49.215,0,0,0,.167,6.163,10.283,10.283,0,0,0,.666,3.664A6.521,6.521,0,0,0,2.5,27.483a6.521,6.521,0,0,0,2.665,1.666,10.283,10.283,0,0,0,3.664.666,49.215,49.215,0,0,0,6.163.167,49.215,49.215,0,0,0,6.163-.167,10.283,10.283,0,0,0,3.664-.666,6.988,6.988,0,0,0,4.331-4.331,10.283,10.283,0,0,0,.666-3.664c0-1.666.167-2.165.167-6.163a49.215,49.215,0,0,0-.167-6.163,10.283,10.283,0,0,0-.666-3.664A6.521,6.521,0,0,0,27.483,2.5,6.521,6.521,0,0,0,24.818.833,10.283,10.283,0,0,0,21.154.167,49.215,49.215,0,0,0,14.991,0m0,7.329a7.539,7.539,0,0,0-7.662,7.662,7.662,7.662,0,1,0,7.662-7.662m0,12.659a4.908,4.908,0,0,1-5-5,4.908,4.908,0,0,1,5-5,4.908,4.908,0,0,1,5,5,4.908,4.908,0,0,1-5,5m8-14.824A1.832,1.832,0,1,0,24.818,7a1.848,1.848,0,0,0-1.832-1.832" fill="#fff" fill-rule="evenodd"/>
</svg>
